<?xml version="1.0"?>
<svg xmlns="http://www.w3.org/2000/svg" xmlns:xlink="http://www.w3.org/1999/xlink" version="1.1" id="Capa_1" x="0px" y="0px" viewBox="0 0 512 512" style="enable-background:new 0 0 512 512;" xml:space="preserve" width="512px" height="512px" class=""><g><g>
	<g>
		<path d="M501.998,200.5c5.522,0,10-4.478,10-10L512,91.005c0.001-9.883-3.847-19.174-10.836-26.162    c-6.988-6.989-16.28-10.838-26.175-10.838c-20.401,0-36.999,16.598-36.999,36.999v81.128c-5.094-2.647-10.873-4.153-17-4.153    c-20.401,0-36.999,16.598-36.999,36.999v68.262c0,9.602-4.193,18.677-11.504,24.9l-36.345,30.938    c-29.328,24.965-46.149,61.373-46.149,99.889v73.025c0,5.522,4.477,10,10,10h129.649c3.479,0,6.707-1.808,8.525-4.772    l51.07-83.289c14.883-24.27,22.749-52.149,22.75-80.62L511.991,264c0-5.522-4.477-10-10-10c-5.522,0-10,4.478-10,10l-0.003,79.312    c-0.001,24.778-6.848,49.042-19.8,70.165l-48.144,78.517H309.993v-63.026c0-32.644,14.256-63.501,39.113-84.661l36.345-30.938    c11.783-10.029,18.539-24.655,18.539-40.129v-68.262c0-9.374,7.626-17,17-17c9.374,0,17,7.626,17,17v108.043    c0,7.075-2.039,13.95-5.843,19.8l-26.764,40.287c-3.056,4.6-1.804,10.807,2.796,13.862c4.601,3.058,10.808,1.805,13.863-2.796    l26.817-40.368c5.974-9.185,9.131-19.829,9.131-30.785V91.004c0-9.374,7.626-17,17.013-17c4.541,0,8.811,1.769,12.021,4.979    c3.21,3.211,4.979,7.48,4.979,12.021l-0.002,99.496C491.999,196.022,496.475,200.5,501.998,200.5z" data-original="#000000" class="active-path" data-old_color="#fafafa" fill="#fafafa"/>
	</g>
</g><g>
	<g>
		<path d="M502.013,218.001c-0.006,0-0.012,0-0.019,0c-5.514,0-9.99,4.466-10,9.982v0.271c-0.01,5.522,4.459,10.008,9.982,10.018    c0.006,0,0.012,0,0.019,0c5.514,0,9.99-4.466,10-9.982v-0.271C512.005,222.495,507.536,218.011,502.013,218.001z" data-original="#000000" class="active-path" data-old_color="#fafafa" fill="#fafafa"/>
	</g>
</g><g>
	<g>
		<path d="M175.858,329.079l-36.345-30.938c-7.311-6.224-11.504-15.3-11.504-24.9v-68.262c0-20.401-16.598-36.999-36.999-36.999    c-6.127,0-11.905,1.506-17,4.153V91.004c0-20.401-16.598-36.999-37.012-36.999c-9.883,0-19.174,3.849-26.163,10.838    C3.848,71.831,0,81.122,0,91.006l0.004,71.33c0,5.522,4.478,9.999,10,9.999c5.523,0,10-4.478,10-10.001l-0.004-71.329    c0-4.541,1.768-8.811,4.979-12.021c3.211-3.21,7.48-4.979,12.034-4.979c9.374,0,17,7.626,17,17v222.016    c0,10.957,3.157,21.602,9.184,30.866l26.764,40.287c3.056,4.6,9.261,5.854,13.863,2.796c4.6-3.056,5.852-9.263,2.796-13.862    l-26.71-40.207c-3.857-5.931-5.896-12.806-5.896-19.881V204.978c0-9.374,7.626-17,17-17c9.374,0,17,7.626,17,17v68.262    c0,15.474,6.757,30.1,18.539,40.129l36.345,30.938c24.856,21.159,39.113,52.018,39.113,84.661v63.025H87.957l-48.145-78.517    c-12.953-21.123-19.799-45.387-19.8-70.165L20.007,236.75c0-5.523-4.478-10-10-10s-10,4.478-10,10l0.004,106.562    c0.001,28.47,7.869,56.347,22.75,80.619l51.071,83.289c1.818,2.965,5.046,4.772,8.525,4.772h129.649c5.523,0,10-4.478,10-10    v-73.024C222.007,390.452,205.186,354.044,175.858,329.079z" data-original="#000000" class="active-path" data-old_color="#fafafa" fill="#fafafa"/>
	</g>
</g><g>
	<g>
		<path d="M352.976,63.965h-29.252c3.948-6.398,6.233-13.926,6.233-21.979c0-23.146-18.831-41.978-41.979-41.978    c-12.801,0-24.273,5.766-31.979,14.828c-7.706-9.063-19.178-14.828-31.979-14.828c-23.147,0-41.979,18.831-41.979,41.979    c0,8.054,2.284,15.582,6.233,21.978h-29.252c-11.59,0-21.019,9.43-21.019,21.02v49.959c0,9.857,6.83,18.128,16,20.387V229.5    c0,20.125,16.374,36.499,36.499,36.499h130.996c20.125,0,36.499-16.374,36.499-36.499v-74.169c9.17-2.26,16-10.531,16-20.387    V84.985C373.996,73.395,364.566,63.965,352.976,63.965z M216.48,246h-25.979c-9.098,0-16.5-7.402-16.5-16.5v-73.538h42.479V246z     M216.48,135.963h-52.479h-4.98c-0.563,0-1.02-0.457-1.02-1.02V84.985c0-0.563,0.458-1.021,1.02-1.021h57.458V135.963z     M202.04,41.985c0-12.119,9.86-21.978,21.979-21.978c12.12,0,21.979,9.86,21.979,21.978v21.979H224.02    C211.901,63.965,202.04,54.105,202.04,41.985z M275.518,246H236.48v-90.038h39.039V246z M275.518,135.963H236.48V83.964h39.039    V135.963z M265.999,63.964V41.984c0-12.119,9.861-21.978,21.979-21.978c12.12,0,21.979,9.86,21.979,21.979    c0,12.119-9.86,21.978-21.979,21.978H265.999z M337.997,229.5c0,9.098-7.402,16.5-16.5,16.5h-25.979v-90.038h42.479V229.5z     M353.996,134.944c0,0.563-0.458,1.02-1.02,1.02h-4.98h-52.479V83.965h57.458c0.563-0.001,1.02,0.457,1.02,1.02V134.944z" data-original="#000000" class="active-path" data-old_color="#fafafa" fill="#fafafa"/>
	</g>
</g><g>
	<g>
		<path d="M10.028,190.502c-0.007,0-0.014,0-0.021,0c-5.513,0-9.988,4.464-10,9.979l-0.001,0.479    c-0.012,5.524,4.456,10.009,9.979,10.021c0.007,0,0.014,0,0.021,0c5.513,0,9.988-4.464,10-9.979l0.001-0.479    C20.017,195,15.55,190.514,10.028,190.502z" data-original="#000000" class="active-path" data-old_color="#fafafa" fill="#fafafa"/>
	</g>
</g></g> </svg>
