<?xml version="1.0"?>
<svg xmlns="http://www.w3.org/2000/svg" height="512px" viewBox="-13 1 511 511.999" width="512px" class=""><g><g fill-rule="evenodd"><path d="m410.671875 352.324219c-42.570313-15.046875-98.25-23.683594-157.710937-24.554688v-175.46875h39.625c5.523437 0 10-4.476562 10-10 0-5.523437-4.476563-10-10-10h-39.625v-112.300781h150.710937l-33.289063 50.660156c-2.191406 3.332032-2.191406 7.648438 0 10.980469l33.289063 50.660156h-31.085937c-5.523438 0-10 4.476563-10 10 0 5.523438 4.476562 10 10 10h49.625c3.675781 0 7.054687-2.015625 8.800781-5.25 1.746093-3.234375 1.574219-7.167969-.441407-10.238281l-39.863281-60.660156 39.863281-60.660156c2.015626-3.070313 2.1875-7.003907.441407-10.238282-1.746094-3.238281-5.125-5.253906-8.800781-5.253906h-179.246094c-5.523438 0-10 4.476562-10 10v317.769531c-59.460938.871094-115.140625 9.507813-157.710938 24.554688-48.207031 17.035156-74.753906 41.015625-74.753906 67.519531 0 27.441406 28.234375 52 79.5 69.148438 5.238281 1.753906 10.902344-1.074219 12.65625-6.308594 1.75-5.238282-1.074219-10.90625-6.3125-12.65625-41.230469-13.796875-65.84375-32.554688-65.84375-50.183594 0-33.253906 86.742188-70.199219 212.460938-72.074219v72.074219c0 5.523438 4.480468 10 10 10 5.523437 0 10-4.476562 10-10v-72.074219c125.722656 1.875 212.464843 38.824219 212.464843 72.074219 0 34.128906-91.363281 72.15625-222.464843 72.15625-27.675782 0-54.738282-1.730469-80.4375-5.144531-5.46875-.726563-10.5 3.125-11.226563 8.597656-.726563 5.476563 3.121094 10.5 8.59375 11.230469 26.566406 3.527344 54.519531 5.316406 83.070313 5.316406 63.199218 0 122.761718-8.75 167.710937-24.636719 48.203125-17.035156 74.753906-41.015625 74.753906-67.519531s-26.546875-50.484375-74.753906-67.519531zm0 0" data-original="#000000" class="active-path" data-old_color="#3f51b5" fill="#3f51b5"/><path d="m121.789062 479.96875c-5.507812 0-10 4.492188-10 10s4.492188 10 10 10c5.507813 0 10-4.492188 10-10s-4.492187-10-10-10zm0 0" data-original="#000000" class="active-path" data-old_color="#3f51b5" fill="#3f51b5"/><path d="m322.585938 142.300781c0 5.507813 4.492187 10 10 10 5.507812 0 10-4.492187 10-10 0-5.507812-4.492188-10-10-10-5.507813 0-10 4.492188-10 10zm0 0" data-original="#000000" class="active-path" data-old_color="#3f51b5" fill="#3f51b5"/></g></g> </svg>
